# xmcd CD database file
#
# Track frame offsets:
#	150
#	18152
#	51415
#	84004
#	110891
#	147694
#	172071
#	194125
#	223980
#
# Disc length: 3305 seconds
#
# Revision: 0
# Processed by: cddbd v1.5.2PL0 Copyright (c) Steve Scherf et al.
# Submitted via: CDex 1.51
#
DISCID=8f0ce709
DTITLE=Francesco Maccianti - Crystals
DYEAR=2008
DGENRE=Jazz
TTITLE0=Beautiful Love
TTITLE1=Giorno senza te
TTITLE2=My Ideal
TTITLE3=Intersections
TTITLE4=Nazca
TTITLE5=Distant Call
TTITLE6=I Fall in Love Too Easily
TTITLE7=Better Git Into Your Soul
TTITLE8=Crystals
EXTD=YEAR: 2008
EXTT0=
EXTT1=
EXTT2=
EXTT3=
EXTT4=
EXTT5=
EXTT6=
EXTT7=
EXTT8=
PLAYORDER=
